<svg xmlns="http://www.w3.org/2000/svg" viewBox="0 0 100 100" width="100px" height="100px"><path fill="#e3e2e3" d="M84,53.778C84,72.478,68.7,84,50,84S16,72.478,16,53.778S31.3,16,50,16S84,35.078,84,53.778z"/><path fill="#7c8a9e" d="M20.345,36.295c2.727-5.372,6.608-10.148,11.265-13.718l0.006-0.035	c-0.191-0.191-0.382-0.382-0.382-0.382c-4.776-4.776-6.877-8.787-11.653-4.012c-4.776,4.776-4.776,12.799,0,17.574	C19.773,35.913,20.154,36.104,20.345,36.295z"/><path fill="#7c8a9e" d="M79.655,36.295c-2.727-5.372-6.608-10.148-11.265-13.718l-0.006-0.035	c0.191-0.191,0.382-0.382,0.382-0.382c4.776-4.776,6.877-8.787,11.653-4.012c4.776,4.776,4.776,12.799,0,17.574	C80.227,35.913,79.846,36.104,79.655,36.295z"/><path fill="#7c8a9e" d="M32.5,59.5c-4.5,0-6-3-6-5c0-5,4-5.5,6.602-10.386C34.389,41.697,35.5,36.5,40,36.5	c2.807,0,4.5,2,4.5,5C44.5,48.5,40,59.5,32.5,59.5z"/><path fill="#7c8a9e" d="M55.5,41.5c0-3,1.693-5,4.5-5c4.5,0,5.611,5.197,6.898,7.614C69.5,49,73.5,49.5,73.5,54.5	c0,2-1.5,5-6,5C60,59.5,55.5,48.5,55.5,41.5z"/><path fill="#444445" d="M50,72.5c0-3.501,9.5-3,9.5-7.5c0-1.381-1.119-2.5-2.5-2.5H43c-1.381,0-2.5,1.119-2.5,2.5	C40.5,69.5,50,68.999,50,72.5z"/><path fill="#1f212b" d="M50,85c-20.28,0-35-13.131-35-31.222C15,35.473,29.968,15,50,15c20.032,0,35,20.473,35,38.778	C85,71.869,70.28,85,50,85z M50,17c-18.887,0-33,19.417-33,36.778C17,70.983,30.57,83,50,83s33-12.017,33-29.222	C83,36.417,68.888,17,50,17z"/><path fill="#1f212b" d="M20.614,37.975l-0.973-0.971c-0.061-0.056-0.148-0.108-0.233-0.164	c-0.201-0.134-0.397-0.275-0.532-0.409c-2.5-2.5-3.877-5.872-3.877-9.496c0-3.624,1.376-6.996,3.875-9.494	c1.689-1.689,3.162-2.435,4.689-2.44c2.319,0.038,4.115,1.953,6.388,4.378c0.615,0.655,1.271,1.356,1.99,2.075l0.752,0.751	L32.532,23.1l-0.313,0.271c-4.489,3.441-8.286,8.067-10.981,13.377L20.614,37.975z M23.498,17c-0.912,0-1.962,0.607-3.21,1.855	c-2.121,2.121-3.289,4.991-3.289,8.08c0,2.961,1.073,5.721,3.03,7.813c2.6-4.778,6.063-8.987,10.104-12.278	c-0.583-0.595-1.126-1.175-1.641-1.723c-1.95-2.08-3.49-3.723-4.961-3.746C23.52,17,23.509,17,23.498,17z"/><path fill="#1f212b" d="M79.389,37.904l-0.625-1.157c-2.696-5.311-6.494-9.937-10.982-13.377l-0.313-0.24l-0.149-0.898	l0.739-0.779c0.72-0.72,1.377-1.42,1.991-2.076c2.273-2.425,4.069-4.34,6.388-4.377c0.022,0,0.046,0,0.069,0	c1.486,0,2.956,0.777,4.62,2.441c2.499,2.499,3.875,5.871,3.875,9.494c0,3.624-1.376,6.996-3.875,9.494	c-0.137,0.136-0.332,0.276-0.532,0.41c-0.085,0.057-0.173,0.108-0.233,0.165L79.389,37.904z M69.866,22.47	c4.04,3.29,7.504,7.499,10.104,12.278c1.956-2.088,3.03-4.849,3.03-7.813c0-3.089-1.168-5.959-3.289-8.08	c-1.263-1.262-2.313-1.881-3.243-1.854c-1.472,0.023-3.012,1.666-4.961,3.746C70.993,21.294,70.449,21.875,69.866,22.47z"/><circle cx="39" cy="44" r="3" fill="#1f212b"/><path fill="#1f212b" d="M32.5,60c-5.142,0-6.5-3.598-6.5-5.5c0-3.18,1.507-4.656,3.252-6.366	c1.119-1.097,2.388-2.339,3.408-4.255c0.241-0.452,0.483-1.024,0.74-1.631C34.517,39.611,36.046,36,40,36c3.038,0,5,2.159,5,5.5	C45,49.043,40.13,60,32.5,60z M40,37c-3.292,0-4.615,3.126-5.679,5.638c-0.266,0.627-0.517,1.22-0.778,1.711	c-1.093,2.052-2.42,3.353-3.591,4.5C28.303,50.464,27,51.74,27,54.5c0,1.557,1.149,4.5,5.5,4.5C39.52,59,44,48.635,44,41.5	C44,38.724,42.467,37,40,37z"/><path fill="#1f212b" d="M67.5,60C59.869,60,55,49.043,55,41.5c0-3.341,1.963-5.5,5-5.5c3.954,0,5.483,3.611,6.6,6.248	c0.257,0.606,0.5,1.179,0.74,1.631c1.021,1.916,2.289,3.159,3.408,4.255C72.493,49.844,74,51.32,74,54.5	C74,56.402,72.642,60,67.5,60z M60,37c-2.468,0-4,1.724-4,4.5C56,48.635,60.479,59,67.5,59c4.351,0,5.5-2.943,5.5-4.5	c0-2.76-1.303-4.036-2.952-5.651c-1.171-1.147-2.498-2.447-3.591-4.5c-0.261-0.49-0.512-1.083-0.778-1.71	C64.615,40.126,63.292,37,60,37z"/><circle cx="61" cy="44" r="3" fill="#1f212b"/><rect width="2" height="3.501" x="49" y="71.499" fill="#1f212b"/><path fill="#1f212b" d="M54,78c-1.979,0-3.25-0.749-4-1.437C49.25,77.251,47.979,78,46,78c-4.315,0-5.796-2.384-5.857-2.485	c-0.284-0.474-0.131-1.088,0.343-1.372c0.473-0.284,1.087-0.132,1.372,0.343C41.888,74.531,42.887,76,46,76	c2.298,0,3.08-1.4,3.112-1.46c0.177-0.329,0.503-0.554,0.899-0.533c0.373,0.006,0.716,0.212,0.883,0.546C50.92,74.6,51.701,76,54,76	c3.113,0,4.111-1.469,4.152-1.531c0.298-0.454,0.909-0.599,1.374-0.307c0.461,0.289,0.611,0.886,0.331,1.353	C59.796,75.616,58.315,78,54,78z"/><path fill="#1f212b" d="M50.5,72.5h-1c0-1.291-1.931-1.996-3.976-2.742C42.935,68.813,40,67.741,40,65c0-1.654,1.346-3,3-3	h14c1.654,0,3,1.346,3,3c0,2.741-2.935,3.813-5.524,4.758C52.431,70.504,50.5,71.209,50.5,72.5z M43,63c-1.103,0-2,0.897-2,2	c0,2.041,2.475,2.944,4.868,3.818c1.703,0.621,3.338,1.219,4.132,2.235c0.794-1.017,2.43-1.614,4.133-2.235	C56.525,67.944,59,67.041,59,65c0-1.103-0.897-2-2-2H43z"/></svg>