<svg xmlns="http://www.w3.org/2000/svg" width="100" height="100" viewBox="0 0 100 100"><path fill="#1f212b" d="M27.5,64c-13.624,0-15.401-6.481-15.47-6.758c-0.134-0.535,0.192-1.078,0.728-1.212	c0.529-0.133,1.07,0.185,1.209,0.714C14,56.855,15.659,62,27.5,62c0.552,0,1,0.447,1,1S28.052,64,27.5,64z"/><path fill="#1f212b" d="M24.501,88c-0.081,0-0.162-0.01-0.244-0.03c-0.536-0.134-0.861-0.677-0.728-1.212	c2.135-8.538,8.535-9.699,8.806-9.744c0.546-0.1,1.061,0.278,1.151,0.822c0.091,0.543-0.275,1.057-0.817,1.149	c-0.23,0.041-5.396,1.049-7.199,8.257C25.356,87.697,24.949,88,24.501,88z"/><path fill="#1f212b" d="M18.5,71c-5.29,0-8.011-2.129-8.125-2.219c-0.432-0.346-0.501-0.975-0.156-1.406	c0.344-0.429,0.971-0.5,1.401-0.159C11.675,67.257,13.995,69,18.5,69c4.215,0,8.015-1.875,8.053-1.895	c0.495-0.247,1.095-0.047,1.342,0.447c0.247,0.494,0.047,1.095-0.447,1.342C27.275,68.98,23.182,71,18.5,71z"/><path fill="#e85654" d="M28.439,44.522C28.795,43.755,29,42.902,29,42c0-3.314-2.686-6-6-6s-6,2.686-6,6	c0,3.166,2.453,5.752,5.561,5.978C22.205,48.745,22,49.598,22,50.5c0,3.314,2.686,6,6,6s6-2.686,6-6	C34,47.334,31.547,44.748,28.439,44.522z"/><path fill="#e85654" d="M71.561,44.522C71.205,43.755,71,42.902,71,42c0-3.314,2.686-6,6-6s6,2.686,6,6	c0,3.166-2.453,5.752-5.561,5.978C77.795,48.745,78,49.598,78,50.5c0,3.314-2.686,6-6,6s-6-2.686-6-6	C66,47.334,68.453,44.748,71.561,44.522z"/><path fill="#1f212b" d="M28,57.5c-3.86,0-7-3.141-7-7c0-0.59,0.074-1.171,0.22-1.736C18.209,47.97,16,45.211,16,42	c0-3.859,3.14-7,7-7s7,3.141,7,7c0,0.59-0.074,1.171-0.22,1.736C32.791,44.53,35,47.289,35,50.5C35,54.359,31.86,57.5,28,57.5z M23,37c-2.757,0-5,2.243-5,5c0,2.604,2.036,4.792,4.634,4.98l1.446,0.104l-0.611,1.314C23.158,49.067,23,49.774,23,50.5	c0,2.757,2.243,5,5,5s5-2.243,5-5c0-2.604-2.036-4.792-4.634-4.98l-1.446-0.104l0.611-1.314C27.842,43.433,28,42.726,28,42	C28,39.243,25.757,37,23,37z"/><path fill="#1f212b" d="M72,57.5c-3.86,0-7-3.141-7-7c0-3.212,2.209-5.971,5.22-6.764C70.074,43.171,70,42.59,70,42	c0-3.859,3.14-7,7-7s7,3.141,7,7c0,3.212-2.209,5.971-5.22,6.764C78.926,49.329,79,49.91,79,50.5C79,54.359,75.86,57.5,72,57.5z M77,37c-2.757,0-5,2.243-5,5c0,0.726,0.158,1.433,0.468,2.101l0.611,1.314l-1.446,0.104C69.035,45.708,67,47.896,67,50.5	c0,2.757,2.243,5,5,5s5-2.243,5-5c0-0.726-0.158-1.433-0.468-2.101l-0.611-1.314l1.446-0.104C79.965,46.792,82,44.604,82,42	C82,39.243,79.757,37,77,37z"/><path fill="#1f212b" d="M23,48c-3.309,0-6-2.691-6-6s2.691-6,6-6s6,2.691,6,6S26.309,48,23,48z M23,37c-2.757,0-5,2.243-5,5	s2.243,5,5,5s5-2.243,5-5S25.757,37,23,37z"/><path fill="#1f212b" d="M14.999,82.5c-0.205,0-0.412-0.063-0.59-0.193c-0.445-0.327-0.542-0.953-0.215-1.398	c5.713-7.789,14.382-8.385,14.748-8.406c0.546-0.041,1.023,0.387,1.056,0.938c0.034,0.551-0.386,1.024-0.937,1.059	c-0.081,0.005-8.114,0.584-13.254,7.594C15.61,82.358,15.307,82.5,14.999,82.5z"/><path fill="#1f212b" d="M72.5,64c-0.552,0-1-0.447-1-1s0.448-1,1-1c11.887,0,13.517-5.19,13.53-5.242	c0.134-0.537,0.68-0.86,1.213-0.728c0.536,0.134,0.861,0.677,0.728,1.212C87.901,57.519,86.124,64,72.5,64z"/><path fill="#1f212b" d="M75.499,88c-0.448,0-0.855-0.303-0.969-0.758c-1.82-7.279-7.141-8.247-7.194-8.256	c-0.544-0.091-0.913-0.606-0.822-1.15c0.091-0.545,0.603-0.917,1.151-0.822c0.271,0.045,6.671,1.206,8.806,9.744	c0.134,0.535-0.192,1.078-0.728,1.212C75.661,87.99,75.58,88,75.499,88z"/><path fill="#1f212b" d="M81.5,71c-4.682,0-8.775-2.02-8.947-2.105c-0.494-0.247-0.693-0.847-0.447-1.341	c0.247-0.494,0.847-0.695,1.341-0.448C73.484,67.124,77.303,69,81.5,69c4.537,0,6.857-1.767,6.88-1.785	c0.434-0.338,1.062-0.264,1.402,0.168c0.341,0.431,0.272,1.055-0.158,1.398C89.511,68.871,86.79,71,81.5,71z"/><path fill="#1f212b" d="M85.001,82.5c-0.308,0-0.611-0.142-0.808-0.408c-5.162-7.04-13.172-7.589-13.252-7.594	c-0.551-0.032-0.972-0.506-0.939-1.057c0.032-0.552,0.503-0.969,1.057-0.939c0.366,0.021,9.035,0.617,14.748,8.406	c0.326,0.445,0.23,1.071-0.215,1.398C85.413,82.438,85.206,82.5,85.001,82.5z"/><path fill="#1f212b" d="M77,48c-3.309,0-6-2.691-6-6s2.691-6,6-6s6,2.691,6,6S80.309,48,77,48z M77,37c-2.757,0-5,2.243-5,5	s2.243,5,5,5s5-2.243,5-5S79.757,37,77,37z"/><path fill="#f27c7c" d="M44,20c0,0,1,2,1,6c0,12.589-10.909,17-16.5,17C22.149,43,17,37.851,17,31.5C17,17,31,13,31,13	s-2,9-2,19C37,30,44,20,44,20z"/><path fill="#f27c7c" d="M56,20c0,0-1,2-1,6c0,12.589,10.909,17,16.5,17C77.851,43,83,37.851,83,31.5C83,17,69,13,69,13	s2,9,2,19C63,30,56,20,56,20z"/><path fill="#1f212b" d="M28.5,44C21.607,44,16,38.393,16,31.5c0-15.08,14.578-19.42,14.725-19.462	c0.339-0.095,0.704-0.009,0.96,0.234c0.257,0.241,0.367,0.601,0.291,0.944c-0.019,0.085-1.798,8.206-1.964,17.429	c7.034-2.546,13.104-11.127,13.168-11.219c0.202-0.289,0.544-0.455,0.893-0.424c0.352,0.025,0.664,0.234,0.821,0.55	C44.939,19.644,46,21.813,46,26C46,39.601,34.21,44,28.5,44z M29.675,14.55C26.131,16.05,18,20.672,18,31.5	C18,37.29,22.71,42,28.5,42C33.557,42,44,38.089,44,26c0-1.646-0.179-2.932-0.377-3.85c-2.381,2.976-8.008,9.227-14.38,10.819	c-0.299,0.075-0.616,0.007-0.858-0.182C28.142,32.599,28,32.308,28,32C28,24.608,29.096,17.689,29.675,14.55z"/><path fill="#1f212b" d="M71.5,44C65.79,44,54,39.601,54,26c0-4.188,1.061-6.356,1.105-6.447	c0.158-0.315,0.469-0.523,0.821-0.55c0.355-0.029,0.69,0.135,0.893,0.423c0.064,0.092,6.145,8.675,13.169,11.219	c-0.166-9.222-1.945-17.343-1.964-17.428c-0.077-0.344,0.034-0.703,0.291-0.944c0.256-0.243,0.62-0.328,0.96-0.234	C69.422,12.08,84,16.42,84,31.5C84,38.393,78.393,44,71.5,44z M56.377,22.15C56.179,23.068,56,24.354,56,26	c0,12.089,10.443,16,15.5,16C77.29,42,82,37.29,82,31.5c0-10.693-8.138-15.395-11.671-16.931C70.909,17.719,72,24.625,72,32	c0,0.308-0.142,0.599-0.385,0.788c-0.242,0.189-0.559,0.259-0.858,0.182C64.386,31.377,58.758,25.126,56.377,22.15z"/><path fill="#f27c7c" d="M53.949,45C64,45,73,57.5,73,67c0,6.592-6.517,12.314-10.96,15.449C59.681,84.114,56.867,85,53.98,85	h-7.96c-2.888,0-5.701-0.886-8.06-2.551C33.517,79.314,27,73.592,27,67c0-7,9-22,18.951-22H53.949"/><path fill="#1f212b" d="M53.979,86H46.02c-3.116,0-6.103-0.945-8.637-2.733C32.19,79.603,26,73.806,26,67	c0-7.378,9.439-23,19.951-23h7.999C64.56,44,74,56.861,74,67c0,6.806-6.19,12.603-11.383,16.267C60.083,85.055,57.096,86,53.979,86z M45.951,46C36.679,46,28,60.439,28,67c0,6.263,6.602,11.855,10.537,14.632C40.731,83.182,43.319,84,46.021,84h7.959	c2.701,0,5.289-0.818,7.484-2.368C65.398,78.855,72,73.263,72,67c0-9.17-8.753-21-18.051-21H45.951z"/><path fill="#1f212b" d="M60.5,78.488c-0.152,0-0.302-0.068-0.4-0.199c-0.166-0.221-0.122-0.534,0.099-0.7	c0.667-0.502,1.287-0.996,1.841-1.469c0.21-0.18,0.525-0.155,0.705,0.056c0.179,0.21,0.154,0.525-0.056,0.704	c-0.57,0.486-1.205,0.993-1.889,1.508C60.71,78.456,60.605,78.488,60.5,78.488z"/><path fill="#1f212b" d="M64.502,75c-0.125,0-0.25-0.047-0.348-0.141c-0.198-0.191-0.204-0.508-0.012-0.707	c0.315-0.326,0.63-0.653,0.909-0.979c0.182-0.208,0.497-0.231,0.705-0.053c0.209,0.18,0.233,0.495,0.054,0.705	c-0.292,0.339-0.619,0.68-0.949,1.021C64.764,74.949,64.633,75,64.502,75z"/><path fill="#1f212b" d="M53.979,81H46.02c-2.078,0-4.068-0.629-5.754-1.819c-2.481-1.751-4.526-3.553-6.077-5.354	c-0.18-0.209-0.157-0.525,0.053-0.705c0.208-0.18,0.524-0.158,0.705,0.053c1.497,1.74,3.48,3.486,5.895,5.19	C42.359,79.435,44.15,80,46.021,80h7.959c0.771,0,1.552-0.111,2.389-0.34c0.265-0.07,0.542,0.083,0.614,0.351	c0.073,0.267-0.084,0.541-0.351,0.614C55.708,80.877,54.841,81,53.979,81z"/></svg>